<svg width="34" height="34" viewBox="0 0 34 34" fill="none" xmlns="http://www.w3.org/2000/svg">
<path d="M31.2581 21.9358H29.977C31.2157 19.6812 31.8455 17.1428 31.8046 14.5707C31.7636 11.9986 31.0532 9.48154 29.7435 7.26753C28.4337 5.05352 26.5697 3.21895 24.3351 1.94458C22.1005 0.670203 19.5724 0 17 0C14.4276 0 11.8995 0.670203 9.66494 1.94458C7.43035 3.21895 5.56633 5.05352 4.25654 7.26753C2.94675 9.48154 2.23638 11.9986 2.19543 14.5707C2.15447 17.1428 2.78433 19.6812 4.02297 21.9358H2.74194C2.015 21.9367 1.31808 22.2258 0.804056 22.7399C0.290032 23.2539 0.000870761 23.9508 0 24.6777V31.2584C0.000870761 31.9853 0.290032 32.6822 0.804056 33.1963C1.31808 33.7103 2.015 33.9994 2.74194 34.0003H31.2581C31.985 33.9994 32.6819 33.7103 33.1959 33.1963C33.71 32.6822 33.9991 31.9853 34 31.2584V24.6777C33.9991 23.9508 33.71 23.2539 33.1959 22.7399C32.6819 22.2258 31.985 21.9367 31.2581 21.9358ZM4.54065 20.5303L6.56036 19.6984L6.14194 18.6844L4.12332 19.5158C3.63767 18.1796 3.36311 16.7759 3.30952 15.3552H5.48387V14.2584H3.30403C3.35983 12.8182 3.64358 11.3959 4.14471 10.0446L6.15839 10.8836L6.58065 9.87129L4.56971 9.03335C5.17034 7.74529 5.96711 6.55818 6.93161 5.51435L8.4671 7.04983L9.24252 6.27442L7.70703 4.73893C8.76534 3.76167 9.97057 2.9567 11.2787 2.35345L12.1078 4.36713L13.1224 3.9498L12.291 1.93009C13.6267 1.44167 15.0305 1.16523 16.4516 1.1108V3.29064H17.5484V1.1108C18.9886 1.1666 20.4108 1.45035 21.7622 1.95148L20.9232 3.96516L21.9355 4.38742L22.7734 2.37648C24.0616 2.97723 25.2488 3.77399 26.293 4.73838L24.7575 6.27387L25.5329 7.04929L27.0684 5.5138C28.0458 6.57181 28.8508 7.77689 29.4539 9.0849L27.4396 9.91516L27.8575 10.9291L29.8767 10.0978C30.3651 11.4334 30.6415 12.8373 30.696 14.2584H28.5161V15.3552H30.6905C30.6368 16.7953 30.356 18.218 29.8586 19.5706L27.8416 18.7299L27.4194 19.7423L29.4336 20.5813C29.2164 21.0462 28.9731 21.4984 28.7048 21.9358H21.0866C22.6606 21.0351 23.8928 19.6395 24.5916 17.9661C25.2905 16.2926 25.4167 14.4352 24.9507 12.6826C24.4847 10.93 23.4526 9.38049 22.0149 8.27513C20.5772 7.16976 18.8146 6.57048 17.0011 6.57048C15.1876 6.57048 13.4249 7.16976 11.9873 8.27513C10.5496 9.38049 9.5175 10.93 9.0515 12.6826C8.5855 14.4352 8.71173 16.2926 9.41055 17.9661C10.1094 19.6395 11.3416 21.0351 12.9156 21.9358H5.29523C5.01651 21.4824 4.76455 21.0131 4.54065 20.5303ZM14.9414 21.6298C14.4685 21.4873 14.0117 21.2958 13.5786 21.0584L14.835 19.4883C14.8701 19.4452 14.9189 19.4153 14.9732 19.4033C15.0276 19.3914 15.0844 19.3981 15.1344 19.4225C15.1812 19.4459 15.2192 19.4837 15.2429 19.5303C15.2666 19.5769 15.2747 19.6298 15.266 19.6814L14.9414 21.6298ZM16.0145 21.8596L16.348 19.8618C16.3966 19.5691 16.3468 19.2685 16.2063 19.0071C16.0658 18.7457 15.8426 18.5382 15.5717 18.4172C15.3007 18.2962 14.9973 18.2685 14.7089 18.3384C14.4205 18.4083 14.1634 18.5718 13.9778 18.8034L12.6617 20.4486C12.1728 20.0721 11.7347 19.634 11.3582 19.1451L13.0034 17.8289C13.2413 17.6364 13.4067 17.3686 13.4724 17.0697C13.538 16.7707 13.5001 16.4583 13.3647 16.1838C13.2376 15.9263 13.0307 15.7169 12.7749 15.5866C12.519 15.4564 12.2279 15.4123 11.945 15.461L9.94665 15.7939C9.84501 15.1412 9.84501 14.4767 9.94665 13.8241L11.945 14.1569C12.0189 14.1693 12.0937 14.1756 12.1687 14.1756C12.4174 14.1756 12.6611 14.1061 12.8725 13.975C13.0838 13.844 13.2543 13.6564 13.3647 13.4336C13.5002 13.1591 13.5382 12.8467 13.4725 12.5477C13.4068 12.2487 13.2414 11.9809 13.0034 11.7884L11.3582 10.4723C11.7347 9.98342 12.1728 9.54528 12.6617 9.1688L13.9778 10.814C14.1043 10.971 14.2644 11.0976 14.4464 11.1844C14.6283 11.2713 14.8275 11.3162 15.0291 11.3157C15.2236 11.3157 15.4157 11.2733 15.5921 11.1915C15.7686 11.1096 15.925 10.9902 16.0506 10.8417C16.1761 10.6932 16.2678 10.519 16.3191 10.3315C16.3705 10.1439 16.3803 9.94735 16.348 9.75558L16.0129 7.75396C16.6659 7.65233 17.3308 7.65233 17.9838 7.75396L17.6504 9.75174C17.618 9.94351 17.6278 10.14 17.6792 10.3276C17.7306 10.5152 17.8222 10.6893 17.9478 10.8379C18.0734 10.9864 18.2298 11.1057 18.4062 11.1876C18.5826 11.2695 18.7748 11.3119 18.9693 11.3119C19.1709 11.3122 19.37 11.2673 19.5519 11.1804C19.7338 11.0936 19.894 10.9671 20.0205 10.8101L21.3366 9.16496C21.8255 9.54144 22.2637 9.97958 22.6402 10.4685L20.995 11.7846C20.7571 11.9772 20.5917 12.2449 20.526 12.5439C20.4603 12.8428 20.4983 13.1552 20.6336 13.4298C20.7615 13.6866 20.9685 13.8955 21.2241 14.0256C21.4798 14.1558 21.7705 14.2003 22.0534 14.1525L24.0517 13.8197C24.1533 14.4723 24.1533 15.1368 24.0517 15.7895L22.0534 15.4566C21.7704 15.4082 21.4794 15.4525 21.2235 15.5828C20.9677 15.7131 20.7608 15.9226 20.6336 16.1799C20.4982 16.4545 20.4602 16.7669 20.5258 17.0659C20.5915 17.3649 20.757 17.6326 20.995 17.8251L22.6402 19.1412C22.2637 19.6301 21.8255 20.0683 21.3366 20.4447L20.0205 18.7996C19.835 18.568 19.5779 18.4044 19.2895 18.3345C19.0011 18.2646 18.6976 18.2924 18.4267 18.4134C18.1557 18.5344 17.9325 18.7418 17.7921 19.0032C17.6516 19.2646 17.6018 19.5652 17.6504 19.858L17.9838 21.8557C17.3308 21.9574 16.6659 21.9574 16.0129 21.8557L16.0145 21.8596ZM10.75 11.3854L12.3201 12.6412C12.362 12.6751 12.3916 12.7219 12.4041 12.7744C12.4167 12.8268 12.4115 12.882 12.3895 12.9312C12.3675 12.9805 12.3298 13.021 12.2823 13.0466C12.2349 13.0722 12.1803 13.0814 12.127 13.0728L10.1786 12.7481C10.3206 12.2753 10.5115 11.8186 10.7484 11.3854H10.75ZM10.1786 16.8654L12.127 16.5408C12.1804 16.5316 12.2354 16.5405 12.2831 16.566C12.3309 16.5915 12.3689 16.6322 12.391 16.6817C12.4131 16.7311 12.4182 16.7865 12.4053 16.8392C12.3925 16.8918 12.3625 16.9386 12.3201 16.9724L10.7484 18.2282C10.511 17.795 10.3195 17.3383 10.177 16.8654H10.1786ZM14.943 7.98154L15.2676 9.92997C15.2769 9.98334 15.2681 10.0383 15.2426 10.0861C15.2172 10.1339 15.1765 10.1718 15.127 10.1939C15.0776 10.216 15.0222 10.221 14.9696 10.208C14.917 10.1951 14.8702 10.165 14.8366 10.1224L13.5786 8.55516C14.0117 8.31775 14.4685 8.12624 14.9414 7.98374L14.943 7.98154ZM19.0603 7.98154C19.5327 8.12486 19.9889 8.3171 20.4214 8.55516L19.165 10.1252C19.1312 10.1673 19.0844 10.197 19.0319 10.2097C18.9794 10.2224 18.9242 10.2173 18.8749 10.1952C18.8256 10.1731 18.7851 10.1353 18.7596 10.0877C18.7341 10.0401 18.7251 9.98542 18.734 9.93216L19.0603 7.98154ZM23.2516 18.2282L21.6816 16.9724C21.638 16.9375 21.6078 16.8887 21.5958 16.8343C21.5838 16.7798 21.5909 16.7228 21.6158 16.6729C21.6388 16.6258 21.6764 16.5875 21.7231 16.5636C21.7698 16.5398 21.823 16.5318 21.8746 16.5408L23.823 16.8654C23.6805 17.3383 23.489 17.795 23.2516 18.2282ZM23.823 12.7481L21.8746 13.0728C21.8212 13.0819 21.7663 13.073 21.7185 13.0475C21.6707 13.022 21.6328 12.9813 21.6106 12.9319C21.5885 12.8824 21.5835 12.827 21.5963 12.7744C21.6092 12.7218 21.6392 12.6749 21.6816 12.6412L23.2516 11.3854C23.489 11.8185 23.6805 12.2752 23.823 12.7481ZM18.734 19.6814C18.7247 19.628 18.7335 19.5731 18.759 19.5253C18.7845 19.4775 18.8251 19.4395 18.8746 19.4174C18.9241 19.3953 18.9795 19.3904 19.0321 19.4033C19.0847 19.4163 19.1315 19.4464 19.165 19.4889L20.4214 21.0584C19.9883 21.2958 19.5316 21.4873 19.0586 21.6298L18.734 19.6814ZM32.9032 31.2584C32.9032 31.6947 32.7299 32.1132 32.4214 32.4217C32.1128 32.7302 31.6944 32.9035 31.2581 32.9035H27.6464L30.0006 30.5493L29.2252 29.7739L26.0955 32.9035H22.1625L24.5167 30.5493L23.7413 29.7739L20.6117 32.9035H16.6786L19.0329 30.5493L18.2575 29.7739L15.1278 32.9035H11.1948L13.549 30.5493L12.7736 29.7739L9.64394 32.9035H5.7109L8.06513 30.5493L7.28971 29.7739L4.16006 32.9035H2.74194C2.30561 32.9035 1.88716 32.7302 1.57863 32.4217C1.2701 32.1132 1.09677 31.6947 1.09677 31.2584V24.6777C1.09677 24.2414 1.2701 23.823 1.57863 23.5144C1.88716 23.2059 2.30561 23.0326 2.74194 23.0326H4.16006L7.28971 26.1622L8.06513 25.3868L5.7109 23.0326H9.64394L12.7736 26.1622L13.549 25.3868L11.1948 23.0326H15.1278L18.2575 26.1622L19.0329 25.3868L16.6786 23.0326H20.6117L23.7413 26.1622L24.5167 25.3868L22.1625 23.0326H26.0955L29.2252 26.1622L30.0006 25.3868L27.6464 23.0326H31.2581C31.6944 23.0326 32.1128 23.2059 32.4214 23.5144C32.7299 23.823 32.9032 24.2414 32.9032 24.6777V31.2584Z" fill="#274D68"/>
<path d="M19.7417 14.8064C19.7417 14.2641 19.5809 13.734 19.2796 13.2831C18.9784 12.8321 18.5501 12.4807 18.0491 12.2732C17.5481 12.0656 16.9968 12.0113 16.4649 12.1171C15.933 12.2229 15.4444 12.4841 15.061 12.8675C14.6775 13.251 14.4164 13.7396 14.3106 14.2715C14.2048 14.8033 14.2591 15.3547 14.4666 15.8557C14.6741 16.3567 15.0256 16.7849 15.4765 17.0862C15.9274 17.3875 16.4575 17.5483 16.9998 17.5483C17.7268 17.5475 18.4237 17.2583 18.9377 16.7443C19.4517 16.2302 19.7409 15.5333 19.7417 14.8064ZM16.9998 16.4516C16.6744 16.4516 16.3564 16.3551 16.0858 16.1743C15.8153 15.9935 15.6044 15.7366 15.4799 15.436C15.3554 15.1354 15.3228 14.8046 15.3863 14.4854C15.4497 14.1663 15.6064 13.8732 15.8365 13.6431C16.0666 13.413 16.3597 13.2563 16.6789 13.1928C16.998 13.1294 17.3288 13.1619 17.6294 13.2865C17.93 13.411 18.1869 13.6218 18.3677 13.8924C18.5485 14.1629 18.645 14.481 18.645 14.8064C18.645 15.2427 18.4716 15.6612 18.1631 15.9697C17.8546 16.2782 17.4361 16.4516 16.9998 16.4516ZM2.19336 27.4193H31.8063V28.5161H2.19336V27.4193Z" fill="#274D68"/>
</svg>
