<svg width="30" height="32" viewBox="0 0 30 32" fill="none" xmlns="http://www.w3.org/2000/svg">
<path d="M0 1.55174V27.9311C0.00173077 29.6443 1.39017 31.0328 3.10343 31.0345H26.8966C28.6098 31.0328 29.9983 29.6443 30 27.9311V25.3448C30 25.2614 29.9798 25.1792 29.9412 25.1053C29.9026 25.0313 29.8466 24.9678 29.7781 24.9202L28.291 23.8857C28.2043 23.8254 28.1013 23.7931 27.9957 23.7931C27.8901 23.7931 27.787 23.8254 27.7003 23.8857L26.5107 24.7133L25.321 23.8857C25.25 23.8359 25.1675 23.8048 25.0813 23.7952C24.995 23.7856 24.9078 23.7979 24.8275 23.8309V1.55174C24.8276 0.694753 24.1329 0 23.2759 0H1.55174C0.694702 0 0 0.694753 0 1.55174ZM25.0216 24.9404L26.2112 25.768C26.2979 25.8283 26.401 25.8606 26.5066 25.8606C26.6122 25.8606 26.7153 25.8283 26.8019 25.768L27.9916 24.9404L28.9656 25.6149V27.9311C28.9656 29.0738 28.0392 30.0001 26.8966 30.0001H5.41035C5.92287 29.4328 6.20671 28.6956 6.20691 27.9311V25.6149L7.17675 24.9425L8.36641 25.77C8.45309 25.8303 8.55616 25.8627 8.66176 25.8627C8.76735 25.8627 8.87042 25.8303 8.95711 25.77L10.1468 24.9425L11.3364 25.77C11.4231 25.8303 11.5262 25.8627 11.6318 25.8627C11.7374 25.8627 11.8404 25.8303 11.9271 25.77L13.1168 24.9425L14.3064 25.77C14.3931 25.8303 14.4962 25.8627 14.6018 25.8627C14.7074 25.8627 14.8104 25.8303 14.8971 25.77L16.0868 24.9425L17.2764 25.77C17.3631 25.8303 17.4662 25.8627 17.5718 25.8627C17.6774 25.8627 17.7804 25.8303 17.8671 25.77L19.0568 24.9425L20.2464 25.77C20.3331 25.8303 20.4362 25.8627 20.5418 25.8627C20.6474 25.8627 20.7504 25.8303 20.8371 25.77L22.0268 24.9425L23.2164 25.77C23.3031 25.8303 23.4062 25.8627 23.5118 25.8627C23.6174 25.8627 23.7205 25.8303 23.8071 25.77L25.0216 24.9404ZM23.7931 1.55174V24.5349L23.5345 24.7149L22.3449 23.8873C22.2582 23.827 22.1551 23.7947 22.0495 23.7947C21.9439 23.7947 21.8409 23.827 21.7542 23.8873L20.5645 24.7149L19.3749 23.8873C19.2882 23.827 19.1851 23.7947 19.0795 23.7947C18.9739 23.7947 18.8709 23.827 18.7842 23.8873L17.5945 24.7149L16.4049 23.8873C16.3182 23.827 16.2151 23.7947 16.1095 23.7947C16.0039 23.7947 15.9009 23.827 15.8142 23.8873L14.6245 24.7149L13.4349 23.8873C13.3482 23.827 13.2451 23.7947 13.1395 23.7947C13.0339 23.7947 12.9309 23.827 12.8442 23.8873L11.6545 24.7149L10.4649 23.8873C10.3782 23.827 10.2751 23.7947 10.1695 23.7947C10.0639 23.7947 9.96085 23.827 9.87416 23.8873L8.68451 24.7149L7.49486 23.8873C7.40817 23.827 7.30511 23.7947 7.19951 23.7947C7.09391 23.7947 6.99084 23.827 6.90416 23.8873L5.41707 24.9218C5.34456 24.9667 5.28428 25.0288 5.24159 25.1026C5.19891 25.1765 5.17514 25.2597 5.17242 25.3449V27.9312C5.17242 29.0738 4.2461 30.0002 3.10343 30.0002C1.96076 30.0002 1.03444 29.0738 1.03444 27.9312V1.55174C1.03444 1.26606 1.26601 1.03449 1.55169 1.03449H23.2758C23.5616 1.03449 23.7931 1.26606 23.7931 1.55174Z" fill="#274D68"/>
<path fill-rule="evenodd" clip-rule="evenodd" d="M4.13785 7.69514H4.6551C4.94078 7.69514 5.17235 7.46358 5.17235 7.1779C5.17235 6.89222 4.94078 6.66065 4.6551 6.66065H4.13785C3.85217 6.66065 3.62061 6.89222 3.62061 7.1779C3.62061 7.46358 3.85217 7.69514 4.13785 7.69514ZM6.72409 7.69514H15.5172C15.8029 7.69514 16.0344 7.46358 16.0344 7.1779C16.0344 6.89222 15.8029 6.66065 15.5172 6.66065H6.72409C6.43841 6.66065 6.20684 6.89222 6.20684 7.1779C6.20684 7.46358 6.43841 7.69514 6.72409 7.69514ZM18.255 8.06079C18.4569 8.26274 18.7844 8.26274 18.9864 8.06079L21.0553 5.99181C21.1496 5.89426 21.2017 5.7636 21.2005 5.62797C21.1994 5.49234 21.1449 5.36261 21.049 5.26672C20.8495 5.06722 20.5269 5.06442 20.3239 5.2604L18.6207 6.96369L17.9519 6.2949C17.8543 6.20066 17.7237 6.14852 17.588 6.1497C17.4524 6.15088 17.3227 6.20529 17.2268 6.30121C17.0273 6.50071 17.0245 6.82334 17.2205 7.0263L18.255 8.06079ZM4.13785 13.3848H4.6551C4.94078 13.3848 5.17235 13.1532 5.17235 12.8676C5.17235 12.5819 4.94078 12.3503 4.6551 12.3503H4.13785C3.85217 12.3503 3.62061 12.5819 3.62061 12.8676C3.62061 13.1532 3.85217 13.3848 4.13785 13.3848ZM6.72409 13.3848H15.5172C15.8029 13.3848 16.0344 13.1532 16.0344 12.8676C16.0344 12.5819 15.8029 12.3503 15.5172 12.3503H6.72409C6.43841 12.3503 6.20684 12.5819 6.20684 12.8676C6.20684 13.1532 6.43841 13.3848 6.72409 13.3848ZM18.255 13.7505C18.4569 13.9524 18.7844 13.9524 18.9864 13.7505L21.0553 11.6815C21.1496 11.5839 21.2017 11.4533 21.2005 11.3176C21.1994 11.182 21.1449 11.0523 21.049 10.9564C20.8495 10.7569 20.5269 10.7541 20.3239 10.9501L18.6207 12.6534L17.9519 11.9846C17.8543 11.8903 17.7237 11.8382 17.588 11.8394C17.4524 11.8405 17.3227 11.895 17.2268 11.9909C17.0273 12.1904 17.0245 12.513 17.2205 12.716L18.255 13.7505ZM4.13785 19.0745H4.6551C4.94078 19.0745 5.17235 18.8429 5.17235 18.5572C5.17235 18.2715 4.94078 18.04 4.6551 18.04H4.13785C3.85217 18.04 3.62061 18.2715 3.62061 18.5572C3.62061 18.8428 3.85217 19.0745 4.13785 19.0745ZM6.72409 19.0745H15.5172C15.8029 19.0745 16.0344 18.8429 16.0344 18.5572C16.0344 18.2715 15.8029 18.04 15.5172 18.04H6.72409C6.43841 18.04 6.20684 18.2715 6.20684 18.5572C6.20684 18.8428 6.43841 19.0745 6.72409 19.0745ZM18.255 19.4401C18.4569 19.6421 18.7844 19.6421 18.9864 19.4401L21.0553 17.3711C21.1496 17.2736 21.2017 17.1429 21.2005 17.0073C21.1994 16.8717 21.1449 16.7419 21.049 16.646C20.8495 16.4465 20.5269 16.4437 20.3239 16.6397L18.6207 18.343L17.9519 17.6742C17.8543 17.58 17.7237 17.5278 17.588 17.529C17.4524 17.5302 17.3227 17.5846 17.2268 17.6805C17.0273 17.88 17.0245 18.2027 17.2205 18.4056L18.255 19.4401Z" fill="#274D68"/>
</svg>
