<svg width="36" height="36" viewBox="0 0 36 36" fill="none" xmlns="http://www.w3.org/2000/svg">
<path d="M18 0C13.2278 0.00553941 8.65265 1.90374 5.2782 5.2782C1.90374 8.65265 0.00553941 13.2278 0 18C0.00553941 22.7722 1.90374 27.3473 5.2782 30.7218C8.65265 34.0963 13.2278 35.9945 18 36C22.7722 35.9945 27.3473 34.0963 30.7218 30.7218C34.0963 27.3473 35.9945 22.7722 36 18C35.9945 13.2278 34.0963 8.65265 30.7218 5.2782C27.3473 1.90374 22.7722 0.00553941 18 0ZM19.3866 2.83081C23.1715 3.17092 26.6917 4.91639 29.2535 7.72322C31.8153 10.53 33.2328 14.1946 33.2267 17.9948C33.2328 21.7949 31.8153 25.4595 29.2535 28.2663C26.6917 31.0731 23.1715 32.8186 19.3866 33.1587V2.83081Z" fill="#274D68"/>
</svg>
