<svg width="32" height="41" viewBox="0 0 32 41" fill="none" xmlns="http://www.w3.org/2000/svg">
<path fill-rule="evenodd" clip-rule="evenodd" d="M26 14.3111V23.1022C28.2 24.3289 32 27.1911 32 32.7111C32 33.7333 31 34.7556 30 34.7556H22C22 38.1429 19.3137 40.8889 16 40.8889C12.6863 40.8889 10 38.1429 10 34.7556H2C1 34.7556 0 33.7333 0 32.7111C0 27.1911 3.8 24.3289 6 23.3067V14.3111C6 9.40444 9.4 5.31556 14 4.29333V2.04444C14 1.02222 15 0 16 0C17 0 18 1.02222 18 2.04444V4.29333C22.6 5.31556 26 9.40444 26 14.3111ZM14 34.7556C14 35.8847 14.8954 36.8 16 36.8C17.1046 36.8 18 35.8847 18 34.7556H14Z" fill="#274D68"/>
</svg>
