<svg width="48" height="48" viewBox="0 0 48 48" fill="none" xmlns="http://www.w3.org/2000/svg">
<path d="M13.0039 12.8438H12.4021L11.2773 18.4687H14.1287L13.0039 12.8438ZM35.7537 24.0937C36.3609 25.7249 37.1686 27.0453 38.0624 28.1688C38.9562 27.0453 39.8576 25.7248 40.4648 24.0937H35.7537Z" fill="#274D68"/>
<path d="M43.7811 8.53125H26.3171L29.9585 37.7512C30.0229 38.9463 29.6962 40.0715 28.9162 40.9523L22.7495 48H43.7811C46.1074 48 47.9999 46.1076 47.9999 43.7812V12.8438C47.9999 10.5174 46.1074 8.53125 43.7811 8.53125ZM43.7811 24.0938H43.4055C42.6054 26.6609 41.3365 28.6697 40.0178 30.2533C41.0508 31.1978 42.1555 31.9725 43.2538 32.8402C43.8594 33.325 43.9583 34.2094 43.4721 34.8164C42.9882 35.4225 42.1004 35.5208 41.4959 35.0348C40.3026 34.0928 39.1825 33.3044 38.0624 32.2765C36.9422 33.3044 35.9159 34.0928 34.7225 35.0348C34.1181 35.5208 33.2303 35.4225 32.7464 34.8164C32.2602 34.2094 32.3591 33.325 32.9647 32.8402C34.063 31.9725 35.0739 31.1978 36.1069 30.2533C34.7882 28.6698 33.613 26.661 32.8129 24.0938H32.4374C31.6601 24.0938 31.0311 23.4648 31.0311 22.6875C31.0311 21.9102 31.6601 21.2812 32.4374 21.2812H36.6561V19.875C36.6561 19.0977 37.2851 18.4688 38.0624 18.4688C38.8396 18.4688 39.4686 19.0977 39.4686 19.875V21.2812H43.7811C44.5584 21.2812 45.1874 21.9102 45.1874 22.6875C45.1874 23.4648 44.5584 24.0938 43.7811 24.0938Z" fill="#274D68"/>
<path d="M22.8904 3.69553C22.6281 1.58887 20.8277 0 18.7046 0H4.21875C1.89244 0 0 1.89244 0 4.21875V35.3438C0 37.6701 1.89244 39.5625 4.21875 39.5625H26.3954C26.8057 39.0936 27.1495 38.7999 27.1641 38.1878C27.1676 38.0344 22.9094 3.84778 22.8904 3.69553ZM17.2448 26.8788C16.4991 27.0322 15.7437 26.5481 15.59 25.776L14.6912 21.2812H10.7152L9.81638 25.776C9.66534 26.5368 8.93194 27.0367 8.16159 26.8788C7.40081 26.7263 6.90638 25.9862 7.05881 25.224L9.87122 11.1615C10.003 10.5051 10.5799 10.0312 11.25 10.0312H14.1563C14.8264 10.0312 15.4032 10.5051 15.535 11.1615L18.3475 25.224C18.5 25.9862 18.0056 26.7263 17.2448 26.8788ZM16.4307 42.375L16.672 44.3045C16.8329 45.5966 17.6915 46.9143 19.1037 47.5722L23.8249 42.375H16.4307Z" fill="#274D68"/>
</svg>
