<svg width="45" height="52" viewBox="0 0 45 52" fill="none" xmlns="http://www.w3.org/2000/svg">
<path d="M44.3885 7.27764C44.3442 6.94954 44.208 6.64195 43.9966 6.39265C43.7851 6.14336 43.5077 5.96324 43.1984 5.87443L22.9414 0.0621985C22.6526 -0.0207328 22.3474 -0.0207328 22.0586 0.0621985L1.8016 5.87443C1.49226 5.96319 1.21481 6.14329 1.00337 6.3926C0.791936 6.6419 0.655735 6.94952 0.611522 7.27764C0.494029 8.14929 -2.18633 28.7445 4.68861 38.99C11.5554 49.2232 21.6855 51.8457 22.1133 51.9524C22.3674 52.0159 22.6326 52.0159 22.8867 51.9524C23.3148 51.8457 33.4448 49.2232 40.3114 38.99C47.1863 28.7447 44.506 8.14951 44.3885 7.27764ZM35.5632 19.3013L21.7459 33.557C21.4243 33.8888 21.0027 34.0548 20.5813 34.0548C20.1598 34.0548 19.7382 33.889 19.4167 33.557L10.8735 24.7429C10.7205 24.5851 10.5992 24.3978 10.5163 24.1916C10.4335 23.9855 10.3909 23.7645 10.3909 23.5413C10.3909 23.3181 10.4335 23.0972 10.5163 22.891C10.5992 22.6848 10.7205 22.4975 10.8735 22.3398L12.5698 20.5897C12.8787 20.271 13.2976 20.092 13.7344 20.092C14.1712 20.092 14.5901 20.271 14.899 20.5897L20.5813 26.4522L31.5377 15.1479C31.6906 14.99 31.8721 14.8648 32.072 14.7794C32.2718 14.6939 32.486 14.6499 32.7023 14.6499C32.9186 14.6499 33.1328 14.6939 33.3326 14.7794C33.5324 14.8648 33.714 14.99 33.8669 15.1479L35.5632 16.898C35.7161 17.0558 35.8375 17.2431 35.9202 17.4493C36.003 17.6555 36.0456 17.8765 36.0456 18.0997C36.0456 18.3228 36.003 18.5438 35.9202 18.75C35.8375 18.9562 35.7161 19.1435 35.5632 19.3013Z" fill="#274D68"/>
</svg>
