<svg width="35" height="27" viewBox="0 0 35 27" fill="none" xmlns="http://www.w3.org/2000/svg">
<path d="M34.4167 2.91667C34.262 2.91667 34.1136 2.97812 34.0042 3.08752C33.8948 3.19692 33.8333 3.34529 33.8333 3.5V24.5H30.6658C26.912 24.5003 23.1703 24.9266 19.5125 25.7705C19.2831 25.823 19.0431 25.8046 18.8243 25.7177C18.6056 25.6309 18.4184 25.4796 18.2875 25.284C20.3702 24.0091 22.7645 23.3341 25.2064 23.3333H32.0833C32.238 23.3333 32.3864 23.2719 32.4958 23.1625C32.6052 23.0531 32.6667 22.9047 32.6667 22.75V18.6667C32.6667 18.512 32.6052 18.3636 32.4958 18.2542C32.3864 18.1448 32.238 18.0833 32.0833 18.0833C31.9286 18.0833 31.7802 18.1448 31.6709 18.2542C31.5615 18.3636 31.5 18.512 31.5 18.6667V22.1667H25.2064C22.7099 22.1643 20.2555 22.8099 18.0833 24.0403V8.16667C18.0833 8.01196 18.0219 7.86358 17.9125 7.75419C17.8031 7.64479 17.6547 7.58333 17.5 7.58333C17.3453 7.58333 17.1969 7.64479 17.0875 7.75419C16.9781 7.86358 16.9167 8.01196 16.9167 8.16667V24.0397C14.7444 22.8094 12.29 22.164 9.79358 22.1667H3.5V1.16667H12.4833C13.6594 1.16744 14.787 1.63517 15.6184 2.46705C16.4497 3.29892 16.9167 4.42685 16.9167 5.60292C16.9167 5.75763 16.9781 5.906 17.0875 6.0154C17.1969 6.12479 17.3453 6.18625 17.5 6.18625C17.6547 6.18625 17.8031 6.12479 17.9125 6.0154C18.0219 5.906 18.0833 5.75763 18.0833 5.60292C18.0833 4.42685 18.5503 3.29892 19.3816 2.46705C20.213 1.63517 21.3406 1.16744 22.5167 1.16667H31.5V16.3333C31.5 16.488 31.5615 16.6364 31.6709 16.7458C31.7802 16.8552 31.9286 16.9167 32.0833 16.9167C32.238 16.9167 32.3864 16.8552 32.4958 16.7458C32.6052 16.6364 32.6667 16.488 32.6667 16.3333V0.583333C32.6667 0.428624 32.6052 0.280251 32.4958 0.170854C32.3864 0.0614583 32.238 0 32.0833 0H22.5167C21.474 0.000774273 20.4522 0.292247 19.566 0.841681C18.6798 1.39112 17.9643 2.17675 17.5 3.11033C17.0357 2.17675 16.3202 1.39112 15.434 0.841681C14.5478 0.292247 13.526 0.000774273 12.4833 0H2.91667C2.76196 0 2.61358 0.0614583 2.50419 0.170854C2.39479 0.280251 2.33333 0.428624 2.33333 0.583333V22.75C2.33333 22.9047 2.39479 23.0531 2.50419 23.1625C2.61358 23.2719 2.76196 23.3333 2.91667 23.3333H9.79358C12.2359 23.3339 14.6306 24.0089 16.7137 25.284C16.5823 25.4791 16.3951 25.63 16.1765 25.7168C15.9578 25.8036 15.7181 25.8223 15.4887 25.7705C11.8305 24.9264 8.08842 24.5002 4.33417 24.5H1.16667V3.5C1.16667 3.34529 1.10521 3.19692 0.995812 3.08752C0.886416 2.97812 0.738043 2.91667 0.583333 2.91667C0.428624 2.91667 0.280251 2.97812 0.170854 3.08752C0.0614581 3.19692 0 3.34529 0 3.5V25.0833C0 25.238 0.0614581 25.3864 0.170854 25.4958C0.280251 25.6052 0.428624 25.6667 0.583333 25.6667H4.33417C7.99967 25.6672 11.6533 26.0835 15.225 26.9074C15.6356 27.0022 16.0643 26.9835 16.4651 26.8532C16.8659 26.7228 17.2236 26.4859 17.5 26.1677C17.7763 26.486 18.134 26.723 18.5348 26.8533C18.9356 26.9837 19.3644 27.0023 19.775 26.9074C23.3467 26.0836 27.0003 25.6674 30.6658 25.6667H34.4167C34.5714 25.6667 34.7197 25.6052 34.8291 25.4958C34.9385 25.3864 35 25.238 35 25.0833V3.5C35 3.34529 34.9385 3.19692 34.8291 3.08752C34.7197 2.97812 34.5714 2.91667 34.4167 2.91667Z" fill="#274D68"/>
<path d="M15.5884 5.0249C14.6692 4.41106 13.5886 4.08361 12.4833 4.08399H5.83333C5.67862 4.08399 5.53025 4.14544 5.42085 4.25484C5.31146 4.36424 5.25 4.51261 5.25 4.66732C5.25 4.82203 5.31146 4.9704 5.42085 5.0798C5.53025 5.1892 5.67862 5.25065 5.83333 5.25065H12.4833C13.3592 5.24965 14.2156 5.50893 14.9438 5.99557C15.0726 6.08143 15.2301 6.11265 15.3818 6.08234C15.5336 6.05204 15.6671 5.9627 15.7529 5.83399C15.8388 5.70527 15.87 5.54771 15.8397 5.39598C15.8094 5.24425 15.7201 5.11077 15.5913 5.0249H15.5884ZM29.1667 4.08399H22.5167C21.4104 4.08311 20.3287 4.41057 19.4087 5.0249C19.3449 5.06742 19.2902 5.12207 19.2476 5.18574C19.205 5.24941 19.1753 5.32085 19.1603 5.39598C19.1453 5.47111 19.1452 5.54846 19.1601 5.62361C19.175 5.69877 19.2046 5.77025 19.2471 5.83399C19.2896 5.89772 19.3443 5.95246 19.4079 5.99507C19.4716 6.03768 19.543 6.06734 19.6182 6.08234C19.6933 6.09735 19.7706 6.09741 19.8458 6.08252C19.9209 6.06763 19.9924 6.03809 20.0562 5.99557C20.7845 5.50909 21.6408 5.24983 22.5167 5.25065H29.1667C29.3214 5.25065 29.4697 5.1892 29.5791 5.0798C29.6885 4.9704 29.75 4.82203 29.75 4.66732C29.75 4.51261 29.6885 4.36424 29.5791 4.25484C29.4697 4.14544 29.3214 4.08399 29.1667 4.08399ZM15.5884 7.94157C14.6692 7.32773 13.5886 7.00028 12.4833 7.00065H5.83333C5.67862 7.00065 5.53025 7.06211 5.42085 7.17151C5.31146 7.2809 5.25 7.42928 5.25 7.58399C5.25 7.7387 5.31146 7.88707 5.42085 7.99647C5.53025 8.10586 5.67862 8.16732 5.83333 8.16732H12.4833C13.3592 8.16632 14.2156 8.42559 14.9438 8.91224C15.0726 8.9981 15.2301 9.02931 15.3818 8.99901C15.5336 8.96871 15.6671 8.87937 15.7529 8.75065C15.8388 8.62193 15.87 8.46438 15.8397 8.31265C15.8094 8.16091 15.7201 8.02743 15.5913 7.94157H15.5884ZM29.1667 7.00065H22.5167C21.4104 6.99977 20.3287 7.32724 19.4087 7.94157C19.3449 7.98409 19.2902 8.03874 19.2476 8.10241C19.205 8.16608 19.1753 8.23752 19.1603 8.31265C19.1453 8.38778 19.1452 8.46513 19.1601 8.54028C19.175 8.61543 19.2046 8.68692 19.2471 8.75065C19.2896 8.81439 19.3443 8.86912 19.4079 8.91174C19.4716 8.95435 19.543 8.98401 19.6182 8.99901C19.6933 9.01401 19.7706 9.01408 19.8458 8.99919C19.9209 8.9843 19.9924 8.95475 20.0562 8.91224C20.7845 8.42576 21.6408 8.16649 22.5167 8.16732H29.1667C29.3214 8.16732 29.4697 8.10586 29.5791 7.99647C29.6885 7.88707 29.75 7.7387 29.75 7.58399C29.75 7.42928 29.6885 7.2809 29.5791 7.17151C29.4697 7.06211 29.3214 7.00065 29.1667 7.00065ZM15.5884 10.8582C14.6692 10.2444 13.5886 9.91695 12.4833 9.91732H5.83333C5.67862 9.91732 5.53025 9.97878 5.42085 10.0882C5.31146 10.1976 5.25 10.3459 5.25 10.5007C5.25 10.6554 5.31146 10.8037 5.42085 10.9131C5.53025 11.0225 5.67862 11.084 5.83333 11.084H12.4833C13.3592 11.083 14.2156 11.3423 14.9438 11.8289C15.0726 11.9148 15.2301 11.946 15.3818 11.9157C15.5336 11.8854 15.6671 11.796 15.7529 11.6673C15.8388 11.5386 15.87 11.381 15.8397 11.2293C15.8094 11.0776 15.7201 10.9441 15.5913 10.8582H15.5884ZM29.1667 9.91732H22.5167C21.4104 9.91644 20.3287 10.2439 19.4087 10.8582C19.3449 10.9008 19.2902 10.9554 19.2476 11.0191C19.205 11.0827 19.1753 11.1542 19.1603 11.2293C19.1453 11.3044 19.1452 11.3818 19.1601 11.4569C19.175 11.5321 19.2046 11.6036 19.2471 11.6673C19.2896 11.7311 19.3443 11.7858 19.4079 11.8284C19.4716 11.871 19.543 11.9007 19.6182 11.9157C19.6933 11.9307 19.7706 11.9307 19.8458 11.9159C19.9209 11.901 19.9924 11.8714 20.0562 11.8289C20.7845 11.3424 21.6408 11.0832 22.5167 11.084H29.1667C29.3214 11.084 29.4697 11.0225 29.5791 10.9131C29.6885 10.8037 29.75 10.6554 29.75 10.5007C29.75 10.3459 29.6885 10.1976 29.5791 10.0882C29.4697 9.97878 29.3214 9.91732 29.1667 9.91732ZM15.5884 13.7749C14.6692 13.1611 13.5886 12.8336 12.4833 12.834H5.83333C5.67862 12.834 5.53025 12.8954 5.42085 13.0048C5.31146 13.1142 5.25 13.2626 5.25 13.4173C5.25 13.572 5.31146 13.7204 5.42085 13.8298C5.53025 13.9392 5.67862 14.0007 5.83333 14.0007H12.4833C13.3592 13.9997 14.2156 14.2589 14.9438 14.7456C15.0076 14.7881 15.0791 14.8176 15.1542 14.8325C15.2294 14.8474 15.3067 14.8474 15.3818 14.8323C15.457 14.8173 15.5284 14.7877 15.5921 14.7451C15.6557 14.7025 15.7104 14.6477 15.7529 14.584C15.7954 14.5203 15.825 14.4488 15.8399 14.3736C15.8548 14.2985 15.8547 14.2211 15.8397 14.146C15.8247 14.0708 15.795 13.9994 15.7524 13.9357C15.7098 13.8721 15.6551 13.8174 15.5913 13.7749H15.5884ZM29.1667 12.834H22.5167C21.4104 12.8331 20.3287 13.1606 19.4087 13.7749C19.2799 13.8608 19.1906 13.9942 19.1603 14.146C19.13 14.2977 19.1612 14.4553 19.2471 14.584C19.3329 14.7127 19.4664 14.802 19.6182 14.8323C19.7699 14.8626 19.9274 14.8314 20.0562 14.7456C20.7845 14.2591 21.6408 13.9998 22.5167 14.0007H29.1667C29.3214 14.0007 29.4697 13.9392 29.5791 13.8298C29.6885 13.7204 29.75 13.572 29.75 13.4173C29.75 13.2626 29.6885 13.1142 29.5791 13.0048C29.4697 12.8954 29.3214 12.834 29.1667 12.834ZM15.5884 16.6916C14.6692 16.0777 13.5886 15.7503 12.4833 15.7507H5.83333C5.67862 15.7507 5.53025 15.8121 5.42085 15.9215C5.31146 16.0309 5.25 16.1793 5.25 16.334C5.25 16.4887 5.31146 16.6371 5.42085 16.7465C5.53025 16.8559 5.67862 16.9173 5.83333 16.9173H12.4833C13.3592 16.9163 14.2156 17.1756 14.9438 17.6622C15.0726 17.7481 15.2301 17.7793 15.3818 17.749C15.5336 17.7187 15.6671 17.6294 15.7529 17.5007C15.8388 17.3719 15.87 17.2144 15.8397 17.0626C15.8094 16.9109 15.7201 16.7774 15.5913 16.6916H15.5884ZM29.1667 15.7507H22.5167C21.4104 15.7498 20.3287 16.0772 19.4087 16.6916C19.3449 16.7341 19.2902 16.7887 19.2476 16.8524C19.205 16.9161 19.1753 16.9875 19.1603 17.0626C19.1453 17.1378 19.1452 17.2151 19.1601 17.2903C19.175 17.3654 19.2046 17.4369 19.2471 17.5007C19.3329 17.6294 19.4664 17.7187 19.6182 17.749C19.6933 17.764 19.7706 17.7641 19.8458 17.7492C19.9209 17.7343 19.9924 17.7048 20.0562 17.6622C20.7845 17.1758 21.6408 16.9165 22.5167 16.9173H29.1667C29.3214 16.9173 29.4697 16.8559 29.5791 16.7465C29.6885 16.6371 29.75 16.4887 29.75 16.334C29.75 16.1793 29.6885 16.0309 29.5791 15.9215C29.4697 15.8121 29.3214 15.7507 29.1667 15.7507ZM12.4833 18.6673H5.83333C5.67862 18.6673 5.53025 18.7288 5.42085 18.8382C5.31146 18.9476 5.25 19.0959 5.25 19.2507C5.25 19.4054 5.31146 19.5537 5.42085 19.6631C5.53025 19.7725 5.67862 19.834 5.83333 19.834H12.4833C13.3592 19.833 14.2156 20.0923 14.9438 20.5789C15.0076 20.6214 15.0791 20.651 15.1542 20.6659C15.2294 20.6807 15.3067 20.6807 15.3818 20.6657C15.457 20.6507 15.5284 20.621 15.5921 20.5784C15.6557 20.5358 15.7104 20.4811 15.7529 20.4173C15.7954 20.3536 15.825 20.2821 15.8399 20.2069C15.8548 20.1318 15.8547 20.0544 15.8397 19.9793C15.8247 19.9042 15.795 19.8327 15.7524 19.7691C15.7098 19.7054 15.6551 19.6508 15.5913 19.6082C14.6713 18.9938 13.5896 18.6664 12.4833 18.6673ZM29.1667 18.6673H22.5167C21.4104 18.6664 20.3287 18.9939 19.4087 19.6082C19.3449 19.6508 19.2902 19.7054 19.2476 19.7691C19.205 19.8327 19.1753 19.9042 19.1603 19.9793C19.1453 20.0544 19.1452 20.1318 19.1601 20.2069C19.175 20.2821 19.2046 20.3536 19.2471 20.4173C19.2896 20.4811 19.3443 20.5358 19.4079 20.5784C19.4716 20.621 19.543 20.6507 19.6182 20.6657C19.6933 20.6807 19.7706 20.6807 19.8458 20.6659C19.9209 20.651 19.9924 20.6214 20.0562 20.5789C20.7845 20.0924 21.6408 19.8332 22.5167 19.834H29.1667C29.3214 19.834 29.4697 19.7725 29.5791 19.6631C29.6885 19.5537 29.75 19.4054 29.75 19.2507C29.75 19.0959 29.6885 18.9476 29.5791 18.8382C29.4697 18.7288 29.3214 18.6673 29.1667 18.6673Z" fill="#274D68"/>
</svg>
