<svg width="361" height="98" viewBox="0 0 361 98" fill="none" xmlns="http://www.w3.org/2000/svg">
<path d="M53.9882 10L360.171 15.5462L306.182 47L0 41.4538L53.9882 10Z" fill="url(#paint0_linear_7_136)"/>
<path d="M360.171 15.5462L306.182 47V97.5L360.171 66.0462V15.5462Z" fill="url(#paint1_linear_7_136)"/>
<path d="M306.182 47L0 41.4538V91.9538L306.182 97.5V47Z" fill="url(#paint2_linear_7_136)"/>
<path d="M37.9999 19.5011L339.5 27.0002L324 36L20.9995 29.5009L37.9999 19.5011Z" fill="url(#paint3_linear_7_136)"/>
<path d="M59 24H75L71 26H55L59 24Z" fill="white"/>
<path d="M93 25H109L105 27H89L93 25Z" fill="white"/>
<path d="M127 26H143L139 28H123L127 26Z" fill="white"/>
<path d="M229 28H245L241 30H225L229 28Z" fill="white"/>
<path d="M161 27H177L173 29H157L161 27Z" fill="white"/>
<path d="M263 29H279L275 31H259L263 29Z" fill="white"/>
<path d="M195 27H211L207 29H191L195 27Z" fill="white"/>
<g filter="url(#filter0_d_7_136)">
<ellipse cx="308" cy="30.5" rx="6" ry="2.5" fill="white"/>
</g>
<path d="M336.987 5.54919L336.253 8.82383L335.461 12.3573L334.668 15.896L334.093 18.4629C334.073 18.5526 334.029 18.6356 333.968 18.7036C333.906 18.7716 333.827 18.8222 333.739 18.8505C333.652 18.8787 333.559 18.8837 333.469 18.8648C333.379 18.8459 333.295 18.8039 333.226 18.7428C332.497 18.0479 331.616 17.531 330.654 17.2323C329.466 16.8985 328.224 16.8051 326.999 16.9576C325.698 17.1115 324.407 17.3425 323.133 17.6495C321.859 17.9523 320.568 18.1815 319.267 18.3361C318.043 18.4888 316.8 18.3953 315.612 18.0615V18.0562C314.346 17.6587 313.225 16.8962 312.39 15.8643L313.182 12.3309L313.98 8.79214L314.772 5.2587L315.564 1.71997C316.399 2.75326 317.52 3.51752 318.786 3.91715C319.973 4.25095 321.213 4.34391 322.436 4.1918C323.737 4.03977 325.028 3.81049 326.302 3.50518C327.578 3.20285 328.871 2.97361 330.174 2.81856C331.396 2.66623 332.637 2.7596 333.823 3.09321C335.002 3.45895 336.056 4.14676 336.865 5.07912C336.922 5.14205 336.962 5.21758 336.983 5.29937C337.005 5.38116 337.006 5.46683 336.987 5.54919Z" fill="#E6E7E8"/>
<path d="M317.994 7.45592C317.725 8.63373 317.461 9.80627 317.196 10.9841C315.932 10.5864 314.813 9.82381 313.98 8.79218L314.772 5.25874C315.607 6.29203 316.727 7.05629 317.994 7.45592ZM316.404 14.5228L316.246 15.2306C316.034 16.176 315.823 17.1177 315.612 18.0563C314.346 17.6588 313.225 16.8963 312.39 15.8644L313.182 12.3309C314.016 13.3645 315.137 14.1273 316.404 14.5228ZM322.436 4.19184L321.644 7.73057C320.421 7.8831 319.18 7.78972 317.994 7.45592C318.253 6.2781 318.522 5.09501 318.786 3.91719C319.973 4.251 321.213 4.34395 322.436 4.19184ZM323.925 14.1108L323.767 14.8186L323.133 17.6496C321.859 17.9523 320.568 18.1816 319.267 18.3362L319.901 15.5052L320.059 14.7975C321.36 14.6419 322.651 14.4127 323.925 14.1108ZM330.174 2.8186L329.381 6.35205C328.078 6.50627 326.785 6.73761 325.51 7.04395L326.302 3.50522C327.578 3.20289 328.871 2.97365 330.174 2.8186ZM331.446 13.7041L331.288 14.4066L330.654 17.2323C329.466 16.8985 328.224 16.8051 326.999 16.9577L327.633 14.132L327.792 13.4242C329.016 13.271 330.259 13.3661 331.446 13.7041ZM335.461 12.3573L334.668 15.896C333.834 14.8641 332.713 14.1016 331.446 13.7041L332.239 10.1654C333.505 10.5629 334.626 11.3254 335.461 12.3573ZM336.987 5.54923L336.253 8.82387C335.418 7.79195 334.297 7.02945 333.031 6.63198L333.823 3.09325C335.002 3.459 336.056 4.1468 336.865 5.07916C336.922 5.14209 336.962 5.21762 336.983 5.29941C337.005 5.3812 337.006 5.46687 336.987 5.54923Z" fill="#2C2F38"/>
<path d="M333.031 6.63173L332.238 10.1652C331.053 9.8272 329.812 9.73199 328.589 9.88524L329.381 6.3518C330.604 6.19863 331.845 6.2937 333.031 6.63173ZM320.851 11.2638L320.059 14.7972C318.834 14.955 317.591 14.8616 316.404 14.5226L317.196 10.9838C318.383 11.3219 319.626 11.4169 320.851 11.2638ZM325.509 7.0437L324.717 10.5719C323.443 10.8784 322.152 11.1095 320.851 11.2638L321.643 7.73032C322.944 7.57526 324.235 7.34602 325.509 7.0437Z" fill="#2C2F38"/>
<path d="M328.589 9.8855C328.32 11.0633 328.056 12.2464 327.791 13.4242C326.491 13.5788 325.2 13.8081 323.925 14.1108L324.718 10.5721C325.994 10.2698 327.287 10.0405 328.589 9.8855Z" fill="#2C2F38"/>
<path d="M316.119 1.45062C316.117 1.55721 316.105 1.66336 316.082 1.76752L309.865 29.4911C309.824 29.6769 309.746 29.8528 309.637 30.0085C309.527 30.1642 309.388 30.2967 309.227 30.3983C309.066 30.4999 308.886 30.5687 308.698 30.6006C308.511 30.6325 308.318 30.627 308.133 30.5844L308.08 30.5685C307.718 30.4741 307.407 30.243 307.212 29.9238C307.017 29.6047 306.953 29.2224 307.034 28.8573L313.251 1.12844C313.336 0.754122 313.567 0.428908 313.891 0.223997C314.216 0.0190858 314.609 -0.0488258 314.983 0.0351302H314.994C315.313 0.110113 315.598 0.29062 315.802 0.547475C316.006 0.80433 316.118 1.12252 316.119 1.45062Z" fill="#AF8066"/>
<path d="M316.119 1.4504C316.117 1.55699 316.105 1.66314 316.082 1.7673L309.865 29.4908C309.824 29.6767 309.746 29.8526 309.637 30.0083C309.527 30.164 309.388 30.2964 309.227 30.3981C309.066 30.4997 308.886 30.5684 308.698 30.6004C308.511 30.6323 308.318 30.6268 308.133 30.5841L308.08 30.5683L314.994 0.0349121C315.313 0.109895 315.598 0.290402 315.802 0.547257C316.006 0.804112 316.118 1.12231 316.119 1.4504Z" fill="#7F5B53"/>
<defs>
<filter id="filter0_d_7_136" x="302" y="28" width="12" height="5.5" filterUnits="userSpaceOnUse" color-interpolation-filters="sRGB">
<feFlood flood-opacity="0" result="BackgroundImageFix"/>
<feColorMatrix in="SourceAlpha" type="matrix" values="0 0 0 0 0 0 0 0 0 0 0 0 0 0 0 0 0 0 127 0" result="hardAlpha"/>
<feOffset dy="0.5"/>
<feComposite in2="hardAlpha" operator="out"/>
<feColorMatrix type="matrix" values="0 0 0 0 0.25 0 0 0 0 0.18267 0 0 0 0 0.167708 0 0 0 1 0"/>
<feBlend mode="normal" in2="BackgroundImageFix" result="effect1_dropShadow_7_136"/>
<feBlend mode="normal" in="SourceGraphic" in2="effect1_dropShadow_7_136" result="shape"/>
</filter>
<linearGradient id="paint0_linear_7_136" x1="183.5" y1="48.5" x2="154" y2="-59.5" gradientUnits="userSpaceOnUse">
<stop offset="0.312409" stop-color="#274D68"/>
<stop offset="1" stop-color="#F3F3F3"/>
</linearGradient>
<linearGradient id="paint1_linear_7_136" x1="336" y1="39" x2="351.5" y2="73" gradientUnits="userSpaceOnUse">
<stop offset="0.349354" stop-color="#123F60"/>
<stop offset="1" stop-color="#F3F3F3" stop-opacity="0"/>
</linearGradient>
<linearGradient id="paint2_linear_7_136" x1="180" y1="31" x2="179" y2="99" gradientUnits="userSpaceOnUse">
<stop offset="0.505474" stop-color="#144467"/>
<stop offset="0.854293" stop-color="#F3F3F3" stop-opacity="0"/>
</linearGradient>
<linearGradient id="paint3_linear_7_136" x1="45.1145" y1="21.9986" x2="314.004" y2="29.6989" gradientUnits="userSpaceOnUse">
<stop stop-color="#999999"/>
<stop offset="0.625" stop-color="#646464"/>
</linearGradient>
</defs>
</svg>
